<mxfile host="app.diagrams.net" modified="2023-05-12T15:59:30.016Z" agent="Mozilla/5.0 (Windows NT 10.0; Win64; x64) AppleWebKit/537.36 (KHTML, like Gecko) Chrome/113.0.0.0 Safari/537.36 Edg/113.0.1774.35" etag="AwwNZg3U6Mdf1ve7T3NJ" version="21.2.9" type="github" pages="2">
  <diagram name="RelationalDiagram" id="efa7a0a1-bf9b-a30e-e6df-94a7791c09e9">
    <mxGraphModel dx="1519" dy="875" grid="1" gridSize="10" guides="1" tooltips="1" connect="1" arrows="1" fold="1" page="1" pageScale="1" pageWidth="826" pageHeight="1169" background="none" math="0" shadow="0">
      <root>
        <mxCell id="0" />
        <mxCell id="1" parent="0" />
        <mxCell id="ynaRiRUArdKcr1fRVs-h-115" value="Places" style="swimlane;fontStyle=0;childLayout=stackLayout;horizontal=1;startSize=30;horizontalStack=0;resizeParent=1;resizeParentMax=0;resizeLast=0;collapsible=1;marginBottom=0;whiteSpace=wrap;html=1;fillColor=#fff2cc;strokeColor=#d6b656;" vertex="1" parent="1">
          <mxGeometry x="1070" y="600" width="140" height="90" as="geometry" />
        </mxCell>
        <mxCell id="ynaRiRUArdKcr1fRVs-h-116" value="Id" style="text;strokeColor=none;fillColor=none;align=left;verticalAlign=middle;spacingLeft=4;spacingRight=4;overflow=hidden;points=[[0,0.5],[1,0.5]];portConstraint=eastwest;rotatable=0;whiteSpace=wrap;html=1;" vertex="1" parent="ynaRiRUArdKcr1fRVs-h-115">
          <mxGeometry y="30" width="140" height="30" as="geometry" />
        </mxCell>
        <mxCell id="ynaRiRUArdKcr1fRVs-h-117" value="Name" style="text;strokeColor=none;fillColor=none;align=left;verticalAlign=middle;spacingLeft=4;spacingRight=4;overflow=hidden;points=[[0,0.5],[1,0.5]];portConstraint=eastwest;rotatable=0;whiteSpace=wrap;html=1;" vertex="1" parent="ynaRiRUArdKcr1fRVs-h-115">
          <mxGeometry y="60" width="140" height="30" as="geometry" />
        </mxCell>
        <mxCell id="ynaRiRUArdKcr1fRVs-h-175" style="edgeStyle=orthogonalEdgeStyle;rounded=0;orthogonalLoop=1;jettySize=auto;html=1;entryX=1;entryY=0.5;entryDx=0;entryDy=0;" edge="1" parent="1" source="ynaRiRUArdKcr1fRVs-h-119" target="ynaRiRUArdKcr1fRVs-h-150">
          <mxGeometry relative="1" as="geometry" />
        </mxCell>
        <mxCell id="ynaRiRUArdKcr1fRVs-h-119" value="Vendors_Places" style="swimlane;fontStyle=0;childLayout=stackLayout;horizontal=1;startSize=30;horizontalStack=0;resizeParent=1;resizeParentMax=0;resizeLast=0;collapsible=1;marginBottom=0;whiteSpace=wrap;html=1;" vertex="1" parent="1">
          <mxGeometry x="1630" y="570" width="140" height="120" as="geometry" />
        </mxCell>
        <mxCell id="o7XahCbz8PNS2DM5ow1C-7" value="Id" style="text;strokeColor=none;fillColor=none;align=left;verticalAlign=middle;spacingLeft=4;spacingRight=4;overflow=hidden;points=[[0,0.5],[1,0.5]];portConstraint=eastwest;rotatable=0;whiteSpace=wrap;html=1;" vertex="1" parent="ynaRiRUArdKcr1fRVs-h-119">
          <mxGeometry y="30" width="140" height="30" as="geometry" />
        </mxCell>
        <mxCell id="ynaRiRUArdKcr1fRVs-h-120" value="IdVendor" style="text;strokeColor=none;fillColor=none;align=left;verticalAlign=middle;spacingLeft=4;spacingRight=4;overflow=hidden;points=[[0,0.5],[1,0.5]];portConstraint=eastwest;rotatable=0;whiteSpace=wrap;html=1;" vertex="1" parent="ynaRiRUArdKcr1fRVs-h-119">
          <mxGeometry y="60" width="140" height="30" as="geometry" />
        </mxCell>
        <mxCell id="ynaRiRUArdKcr1fRVs-h-121" value="IdPlace" style="text;strokeColor=none;fillColor=none;align=left;verticalAlign=middle;spacingLeft=4;spacingRight=4;overflow=hidden;points=[[0,0.5],[1,0.5]];portConstraint=eastwest;rotatable=0;whiteSpace=wrap;html=1;" vertex="1" parent="ynaRiRUArdKcr1fRVs-h-119">
          <mxGeometry y="90" width="140" height="30" as="geometry" />
        </mxCell>
        <mxCell id="ynaRiRUArdKcr1fRVs-h-123" value="Users" style="swimlane;fontStyle=0;childLayout=stackLayout;horizontal=1;startSize=30;horizontalStack=0;resizeParent=1;resizeParentMax=0;resizeLast=0;collapsible=1;marginBottom=0;whiteSpace=wrap;html=1;fillColor=#fff2cc;strokeColor=#d6b656;" vertex="1" parent="1">
          <mxGeometry x="840" y="240" width="140" height="90" as="geometry" />
        </mxCell>
        <mxCell id="ynaRiRUArdKcr1fRVs-h-124" value="Id" style="text;strokeColor=none;fillColor=none;align=left;verticalAlign=middle;spacingLeft=4;spacingRight=4;overflow=hidden;points=[[0,0.5],[1,0.5]];portConstraint=eastwest;rotatable=0;whiteSpace=wrap;html=1;" vertex="1" parent="ynaRiRUArdKcr1fRVs-h-123">
          <mxGeometry y="30" width="140" height="30" as="geometry" />
        </mxCell>
        <mxCell id="ynaRiRUArdKcr1fRVs-h-197" value="Name" style="text;strokeColor=none;fillColor=none;align=left;verticalAlign=middle;spacingLeft=4;spacingRight=4;overflow=hidden;points=[[0,0.5],[1,0.5]];portConstraint=eastwest;rotatable=0;whiteSpace=wrap;html=1;" vertex="1" parent="ynaRiRUArdKcr1fRVs-h-123">
          <mxGeometry y="60" width="140" height="30" as="geometry" />
        </mxCell>
        <mxCell id="ynaRiRUArdKcr1fRVs-h-127" value="Groups" style="swimlane;fontStyle=0;childLayout=stackLayout;horizontal=1;startSize=30;horizontalStack=0;resizeParent=1;resizeParentMax=0;resizeLast=0;collapsible=1;marginBottom=0;whiteSpace=wrap;html=1;fillColor=#fff2cc;strokeColor=#d6b656;" vertex="1" parent="1">
          <mxGeometry x="1590" y="110" width="140" height="90" as="geometry" />
        </mxCell>
        <mxCell id="ynaRiRUArdKcr1fRVs-h-128" value="Id" style="text;strokeColor=none;fillColor=none;align=left;verticalAlign=middle;spacingLeft=4;spacingRight=4;overflow=hidden;points=[[0,0.5],[1,0.5]];portConstraint=eastwest;rotatable=0;whiteSpace=wrap;html=1;" vertex="1" parent="ynaRiRUArdKcr1fRVs-h-127">
          <mxGeometry y="30" width="140" height="30" as="geometry" />
        </mxCell>
        <mxCell id="ynaRiRUArdKcr1fRVs-h-129" value="Name" style="text;strokeColor=none;fillColor=none;align=left;verticalAlign=middle;spacingLeft=4;spacingRight=4;overflow=hidden;points=[[0,0.5],[1,0.5]];portConstraint=eastwest;rotatable=0;whiteSpace=wrap;html=1;" vertex="1" parent="ynaRiRUArdKcr1fRVs-h-127">
          <mxGeometry y="60" width="140" height="30" as="geometry" />
        </mxCell>
        <mxCell id="ynaRiRUArdKcr1fRVs-h-131" value="Coffees" style="swimlane;fontStyle=0;childLayout=stackLayout;horizontal=1;startSize=30;horizontalStack=0;resizeParent=1;resizeParentMax=0;resizeLast=0;collapsible=1;marginBottom=0;whiteSpace=wrap;html=1;fillColor=#fff2cc;strokeColor=#d6b656;" vertex="1" parent="1">
          <mxGeometry x="1630" y="820" width="140" height="120" as="geometry" />
        </mxCell>
        <mxCell id="ynaRiRUArdKcr1fRVs-h-132" value="Id" style="text;strokeColor=none;fillColor=none;align=left;verticalAlign=middle;spacingLeft=4;spacingRight=4;overflow=hidden;points=[[0,0.5],[1,0.5]];portConstraint=eastwest;rotatable=0;whiteSpace=wrap;html=1;" vertex="1" parent="ynaRiRUArdKcr1fRVs-h-131">
          <mxGeometry y="30" width="140" height="30" as="geometry" />
        </mxCell>
        <mxCell id="ynaRiRUArdKcr1fRVs-h-133" value="Name" style="text;strokeColor=none;fillColor=none;align=left;verticalAlign=middle;spacingLeft=4;spacingRight=4;overflow=hidden;points=[[0,0.5],[1,0.5]];portConstraint=eastwest;rotatable=0;whiteSpace=wrap;html=1;" vertex="1" parent="ynaRiRUArdKcr1fRVs-h-131">
          <mxGeometry y="60" width="140" height="30" as="geometry" />
        </mxCell>
        <mxCell id="ynaRiRUArdKcr1fRVs-h-134" value="Description" style="text;strokeColor=none;fillColor=none;align=left;verticalAlign=middle;spacingLeft=4;spacingRight=4;overflow=hidden;points=[[0,0.5],[1,0.5]];portConstraint=eastwest;rotatable=0;whiteSpace=wrap;html=1;" vertex="1" parent="ynaRiRUArdKcr1fRVs-h-131">
          <mxGeometry y="90" width="140" height="30" as="geometry" />
        </mxCell>
        <mxCell id="ynaRiRUArdKcr1fRVs-h-135" value="Vendors_Coffees_Prices" style="swimlane;fontStyle=0;childLayout=stackLayout;horizontal=1;startSize=30;horizontalStack=0;resizeParent=1;resizeParentMax=0;resizeLast=0;collapsible=1;marginBottom=0;whiteSpace=wrap;html=1;" vertex="1" parent="1">
          <mxGeometry x="930" y="910" width="260" height="150" as="geometry" />
        </mxCell>
        <mxCell id="ynaRiRUArdKcr1fRVs-h-137" value="IdVendor" style="text;strokeColor=none;fillColor=none;align=left;verticalAlign=middle;spacingLeft=4;spacingRight=4;overflow=hidden;points=[[0,0.5],[1,0.5]];portConstraint=eastwest;rotatable=0;whiteSpace=wrap;html=1;" vertex="1" parent="ynaRiRUArdKcr1fRVs-h-135">
          <mxGeometry y="30" width="260" height="30" as="geometry" />
        </mxCell>
        <mxCell id="ynaRiRUArdKcr1fRVs-h-138" value="IdCoffee" style="text;strokeColor=none;fillColor=none;align=left;verticalAlign=middle;spacingLeft=4;spacingRight=4;overflow=hidden;points=[[0,0.5],[1,0.5]];portConstraint=eastwest;rotatable=0;whiteSpace=wrap;html=1;" vertex="1" parent="ynaRiRUArdKcr1fRVs-h-135">
          <mxGeometry y="60" width="260" height="30" as="geometry" />
        </mxCell>
        <mxCell id="ynaRiRUArdKcr1fRVs-h-183" value="Price" style="text;strokeColor=none;fillColor=none;align=left;verticalAlign=middle;spacingLeft=4;spacingRight=4;overflow=hidden;points=[[0,0.5],[1,0.5]];portConstraint=eastwest;rotatable=0;whiteSpace=wrap;html=1;" vertex="1" parent="ynaRiRUArdKcr1fRVs-h-135">
          <mxGeometry y="90" width="260" height="30" as="geometry" />
        </mxCell>
        <mxCell id="ynaRiRUArdKcr1fRVs-h-184" value="Currency" style="text;strokeColor=none;fillColor=none;align=left;verticalAlign=middle;spacingLeft=4;spacingRight=4;overflow=hidden;points=[[0,0.5],[1,0.5]];portConstraint=eastwest;rotatable=0;whiteSpace=wrap;html=1;" vertex="1" parent="ynaRiRUArdKcr1fRVs-h-135">
          <mxGeometry y="120" width="260" height="30" as="geometry" />
        </mxCell>
        <mxCell id="ynaRiRUArdKcr1fRVs-h-144" value="HeaderPurchases" style="swimlane;fontStyle=0;childLayout=stackLayout;horizontal=1;startSize=30;horizontalStack=0;resizeParent=1;resizeParentMax=0;resizeLast=0;collapsible=1;marginBottom=0;whiteSpace=wrap;html=1;" vertex="1" parent="1">
          <mxGeometry x="1925" y="270" width="140" height="150" as="geometry" />
        </mxCell>
        <mxCell id="ynaRiRUArdKcr1fRVs-h-145" value="Id" style="text;strokeColor=none;fillColor=none;align=left;verticalAlign=middle;spacingLeft=4;spacingRight=4;overflow=hidden;points=[[0,0.5],[1,0.5]];portConstraint=eastwest;rotatable=0;whiteSpace=wrap;html=1;" vertex="1" parent="ynaRiRUArdKcr1fRVs-h-144">
          <mxGeometry y="30" width="140" height="30" as="geometry" />
        </mxCell>
        <mxCell id="ynaRiRUArdKcr1fRVs-h-146" value="IdUser" style="text;strokeColor=none;fillColor=none;align=left;verticalAlign=middle;spacingLeft=4;spacingRight=4;overflow=hidden;points=[[0,0.5],[1,0.5]];portConstraint=eastwest;rotatable=0;whiteSpace=wrap;html=1;" vertex="1" parent="ynaRiRUArdKcr1fRVs-h-144">
          <mxGeometry y="60" width="140" height="30" as="geometry" />
        </mxCell>
        <mxCell id="ynaRiRUArdKcr1fRVs-h-147" value="IdGroup" style="text;strokeColor=none;fillColor=none;align=left;verticalAlign=middle;spacingLeft=4;spacingRight=4;overflow=hidden;points=[[0,0.5],[1,0.5]];portConstraint=eastwest;rotatable=0;whiteSpace=wrap;html=1;" vertex="1" parent="ynaRiRUArdKcr1fRVs-h-144">
          <mxGeometry y="90" width="140" height="30" as="geometry" />
        </mxCell>
        <mxCell id="ynaRiRUArdKcr1fRVs-h-215" value="IdVendor" style="text;strokeColor=none;fillColor=none;align=left;verticalAlign=middle;spacingLeft=4;spacingRight=4;overflow=hidden;points=[[0,0.5],[1,0.5]];portConstraint=eastwest;rotatable=0;whiteSpace=wrap;html=1;" vertex="1" parent="ynaRiRUArdKcr1fRVs-h-144">
          <mxGeometry y="120" width="140" height="30" as="geometry" />
        </mxCell>
        <mxCell id="ynaRiRUArdKcr1fRVs-h-148" value="Bookings" style="swimlane;fontStyle=0;childLayout=stackLayout;horizontal=1;startSize=30;horizontalStack=0;resizeParent=1;resizeParentMax=0;resizeLast=0;collapsible=1;marginBottom=0;whiteSpace=wrap;html=1;" vertex="1" parent="1">
          <mxGeometry x="1180" y="340" width="140" height="90" as="geometry" />
        </mxCell>
        <mxCell id="ynaRiRUArdKcr1fRVs-h-149" value="IdGroup" style="text;strokeColor=none;fillColor=none;align=left;verticalAlign=middle;spacingLeft=4;spacingRight=4;overflow=hidden;points=[[0,0.5],[1,0.5]];portConstraint=eastwest;rotatable=0;whiteSpace=wrap;html=1;" vertex="1" parent="ynaRiRUArdKcr1fRVs-h-148">
          <mxGeometry y="30" width="140" height="30" as="geometry" />
        </mxCell>
        <mxCell id="ynaRiRUArdKcr1fRVs-h-150" value="IdVendor" style="text;strokeColor=none;fillColor=none;align=left;verticalAlign=middle;spacingLeft=4;spacingRight=4;overflow=hidden;points=[[0,0.5],[1,0.5]];portConstraint=eastwest;rotatable=0;whiteSpace=wrap;html=1;" vertex="1" parent="ynaRiRUArdKcr1fRVs-h-148">
          <mxGeometry y="60" width="140" height="30" as="geometry" />
        </mxCell>
        <mxCell id="ynaRiRUArdKcr1fRVs-h-219" style="edgeStyle=orthogonalEdgeStyle;rounded=0;orthogonalLoop=1;jettySize=auto;html=1;entryX=1;entryY=0.5;entryDx=0;entryDy=0;" edge="1" parent="1" source="ynaRiRUArdKcr1fRVs-h-152" target="ynaRiRUArdKcr1fRVs-h-145">
          <mxGeometry relative="1" as="geometry" />
        </mxCell>
        <mxCell id="ynaRiRUArdKcr1fRVs-h-152" value="UserExclussionsFromPurchase" style="swimlane;fontStyle=0;childLayout=stackLayout;horizontal=1;startSize=30;horizontalStack=0;resizeParent=1;resizeParentMax=0;resizeLast=0;collapsible=1;marginBottom=0;whiteSpace=wrap;html=1;" vertex="1" parent="1">
          <mxGeometry x="2130" y="100" width="210" height="90" as="geometry" />
        </mxCell>
        <mxCell id="ynaRiRUArdKcr1fRVs-h-218" value="IdPurchase" style="text;strokeColor=none;fillColor=none;align=left;verticalAlign=middle;spacingLeft=4;spacingRight=4;overflow=hidden;points=[[0,0.5],[1,0.5]];portConstraint=eastwest;rotatable=0;whiteSpace=wrap;html=1;" vertex="1" parent="ynaRiRUArdKcr1fRVs-h-152">
          <mxGeometry y="30" width="210" height="30" as="geometry" />
        </mxCell>
        <mxCell id="ynaRiRUArdKcr1fRVs-h-153" value="IdUser" style="text;strokeColor=none;fillColor=none;align=left;verticalAlign=middle;spacingLeft=4;spacingRight=4;overflow=hidden;points=[[0,0.5],[1,0.5]];portConstraint=eastwest;rotatable=0;whiteSpace=wrap;html=1;" vertex="1" parent="ynaRiRUArdKcr1fRVs-h-152">
          <mxGeometry y="60" width="210" height="30" as="geometry" />
        </mxCell>
        <mxCell id="ynaRiRUArdKcr1fRVs-h-156" value="UsersGroups" style="swimlane;fontStyle=0;childLayout=stackLayout;horizontal=1;startSize=30;horizontalStack=0;resizeParent=1;resizeParentMax=0;resizeLast=0;collapsible=1;marginBottom=0;whiteSpace=wrap;html=1;fillColor=#dae8fc;strokeColor=#6c8ebf;" vertex="1" parent="1">
          <mxGeometry x="1070" y="90" width="140" height="90" as="geometry" />
        </mxCell>
        <mxCell id="ynaRiRUArdKcr1fRVs-h-157" value="IdUser" style="text;strokeColor=none;fillColor=none;align=left;verticalAlign=middle;spacingLeft=4;spacingRight=4;overflow=hidden;points=[[0,0.5],[1,0.5]];portConstraint=eastwest;rotatable=0;whiteSpace=wrap;html=1;" vertex="1" parent="ynaRiRUArdKcr1fRVs-h-156">
          <mxGeometry y="30" width="140" height="30" as="geometry" />
        </mxCell>
        <mxCell id="ynaRiRUArdKcr1fRVs-h-158" value="IdGroup" style="text;strokeColor=none;fillColor=none;align=left;verticalAlign=middle;spacingLeft=4;spacingRight=4;overflow=hidden;points=[[0,0.5],[1,0.5]];portConstraint=eastwest;rotatable=0;whiteSpace=wrap;html=1;" vertex="1" parent="ynaRiRUArdKcr1fRVs-h-156">
          <mxGeometry y="60" width="140" height="30" as="geometry" />
        </mxCell>
        <mxCell id="ynaRiRUArdKcr1fRVs-h-160" style="edgeStyle=orthogonalEdgeStyle;rounded=0;orthogonalLoop=1;jettySize=auto;html=1;entryX=0;entryY=0.5;entryDx=0;entryDy=0;" edge="1" parent="1" source="ynaRiRUArdKcr1fRVs-h-124" target="ynaRiRUArdKcr1fRVs-h-157">
          <mxGeometry relative="1" as="geometry" />
        </mxCell>
        <mxCell id="ynaRiRUArdKcr1fRVs-h-162" style="edgeStyle=orthogonalEdgeStyle;rounded=0;orthogonalLoop=1;jettySize=auto;html=1;entryX=1.007;entryY=0.267;entryDx=0;entryDy=0;entryPerimeter=0;" edge="1" parent="1" source="ynaRiRUArdKcr1fRVs-h-128" target="ynaRiRUArdKcr1fRVs-h-158">
          <mxGeometry relative="1" as="geometry" />
        </mxCell>
        <mxCell id="ynaRiRUArdKcr1fRVs-h-165" style="edgeStyle=orthogonalEdgeStyle;rounded=0;orthogonalLoop=1;jettySize=auto;html=1;entryX=1;entryY=0.5;entryDx=0;entryDy=0;" edge="1" parent="1" source="ynaRiRUArdKcr1fRVs-h-128" target="ynaRiRUArdKcr1fRVs-h-149">
          <mxGeometry relative="1" as="geometry" />
        </mxCell>
        <mxCell id="ynaRiRUArdKcr1fRVs-h-168" value="FavouriteCoffeeUser" style="swimlane;fontStyle=0;childLayout=stackLayout;horizontal=1;startSize=30;horizontalStack=0;resizeParent=1;resizeParentMax=0;resizeLast=0;collapsible=1;marginBottom=0;whiteSpace=wrap;html=1;" vertex="1" parent="1">
          <mxGeometry x="590" y="240" width="140" height="120" as="geometry" />
        </mxCell>
        <mxCell id="ynaRiRUArdKcr1fRVs-h-171" value="IdCoffee" style="text;strokeColor=none;fillColor=none;align=left;verticalAlign=middle;spacingLeft=4;spacingRight=4;overflow=hidden;points=[[0,0.5],[1,0.5]];portConstraint=eastwest;rotatable=0;whiteSpace=wrap;html=1;" vertex="1" parent="ynaRiRUArdKcr1fRVs-h-168">
          <mxGeometry y="30" width="140" height="30" as="geometry" />
        </mxCell>
        <mxCell id="ynaRiRUArdKcr1fRVs-h-172" value="IdUser" style="text;strokeColor=none;fillColor=none;align=left;verticalAlign=middle;spacingLeft=4;spacingRight=4;overflow=hidden;points=[[0,0.5],[1,0.5]];portConstraint=eastwest;rotatable=0;whiteSpace=wrap;html=1;" vertex="1" parent="ynaRiRUArdKcr1fRVs-h-168">
          <mxGeometry y="60" width="140" height="30" as="geometry" />
        </mxCell>
        <mxCell id="o7XahCbz8PNS2DM5ow1C-1" value="SugarQuantity" style="text;strokeColor=none;fillColor=none;align=left;verticalAlign=middle;spacingLeft=4;spacingRight=4;overflow=hidden;points=[[0,0.5],[1,0.5]];portConstraint=eastwest;rotatable=0;whiteSpace=wrap;html=1;" vertex="1" parent="ynaRiRUArdKcr1fRVs-h-168">
          <mxGeometry y="90" width="140" height="30" as="geometry" />
        </mxCell>
        <mxCell id="ynaRiRUArdKcr1fRVs-h-176" value="VendorCoffees" style="swimlane;fontStyle=0;childLayout=stackLayout;horizontal=1;startSize=30;horizontalStack=0;resizeParent=1;resizeParentMax=0;resizeLast=0;collapsible=1;marginBottom=0;whiteSpace=wrap;html=1;" vertex="1" parent="1">
          <mxGeometry x="1370" y="670" width="140" height="90" as="geometry" />
        </mxCell>
        <mxCell id="ynaRiRUArdKcr1fRVs-h-177" value="IdVendor" style="text;strokeColor=none;fillColor=none;align=left;verticalAlign=middle;spacingLeft=4;spacingRight=4;overflow=hidden;points=[[0,0.5],[1,0.5]];portConstraint=eastwest;rotatable=0;whiteSpace=wrap;html=1;" vertex="1" parent="ynaRiRUArdKcr1fRVs-h-176">
          <mxGeometry y="30" width="140" height="30" as="geometry" />
        </mxCell>
        <mxCell id="ynaRiRUArdKcr1fRVs-h-178" value="IdCoffee" style="text;strokeColor=none;fillColor=none;align=left;verticalAlign=middle;spacingLeft=4;spacingRight=4;overflow=hidden;points=[[0,0.5],[1,0.5]];portConstraint=eastwest;rotatable=0;whiteSpace=wrap;html=1;" vertex="1" parent="ynaRiRUArdKcr1fRVs-h-176">
          <mxGeometry y="60" width="140" height="30" as="geometry" />
        </mxCell>
        <mxCell id="ynaRiRUArdKcr1fRVs-h-181" style="edgeStyle=orthogonalEdgeStyle;rounded=0;orthogonalLoop=1;jettySize=auto;html=1;entryX=1;entryY=0.5;entryDx=0;entryDy=0;" edge="1" parent="1" source="o7XahCbz8PNS2DM5ow1C-7" target="ynaRiRUArdKcr1fRVs-h-177">
          <mxGeometry relative="1" as="geometry" />
        </mxCell>
        <mxCell id="ynaRiRUArdKcr1fRVs-h-182" style="edgeStyle=orthogonalEdgeStyle;rounded=0;orthogonalLoop=1;jettySize=auto;html=1;entryX=1;entryY=0.5;entryDx=0;entryDy=0;" edge="1" parent="1" source="ynaRiRUArdKcr1fRVs-h-132" target="ynaRiRUArdKcr1fRVs-h-178">
          <mxGeometry relative="1" as="geometry" />
        </mxCell>
        <mxCell id="ynaRiRUArdKcr1fRVs-h-186" style="edgeStyle=orthogonalEdgeStyle;rounded=0;orthogonalLoop=1;jettySize=auto;html=1;entryX=1;entryY=0.5;entryDx=0;entryDy=0;" edge="1" parent="1" source="ynaRiRUArdKcr1fRVs-h-116">
          <mxGeometry relative="1" as="geometry">
            <mxPoint x="1190" y="955" as="targetPoint" />
            <Array as="points">
              <mxPoint x="1230" y="645" />
              <mxPoint x="1230" y="955" />
            </Array>
          </mxGeometry>
        </mxCell>
        <mxCell id="ynaRiRUArdKcr1fRVs-h-187" style="edgeStyle=orthogonalEdgeStyle;rounded=0;orthogonalLoop=1;jettySize=auto;html=1;entryX=1;entryY=0.5;entryDx=0;entryDy=0;" edge="1" parent="1" source="ynaRiRUArdKcr1fRVs-h-177" target="ynaRiRUArdKcr1fRVs-h-137">
          <mxGeometry relative="1" as="geometry" />
        </mxCell>
        <mxCell id="ynaRiRUArdKcr1fRVs-h-188" style="edgeStyle=orthogonalEdgeStyle;rounded=0;orthogonalLoop=1;jettySize=auto;html=1;entryX=1;entryY=0.5;entryDx=0;entryDy=0;" edge="1" parent="1" source="ynaRiRUArdKcr1fRVs-h-132" target="ynaRiRUArdKcr1fRVs-h-138">
          <mxGeometry relative="1" as="geometry">
            <Array as="points">
              <mxPoint x="1570" y="865" />
              <mxPoint x="1570" y="985" />
            </Array>
          </mxGeometry>
        </mxCell>
        <mxCell id="ynaRiRUArdKcr1fRVs-h-191" value="AllowedPlaces" style="swimlane;fontStyle=0;childLayout=stackLayout;horizontal=1;startSize=30;horizontalStack=0;resizeParent=1;resizeParentMax=0;resizeLast=0;collapsible=1;marginBottom=0;whiteSpace=wrap;html=1;" vertex="1" parent="1">
          <mxGeometry x="1630" y="260" width="140" height="90" as="geometry" />
        </mxCell>
        <mxCell id="ynaRiRUArdKcr1fRVs-h-192" value="IdPlace" style="text;strokeColor=none;fillColor=none;align=left;verticalAlign=middle;spacingLeft=4;spacingRight=4;overflow=hidden;points=[[0,0.5],[1,0.5]];portConstraint=eastwest;rotatable=0;whiteSpace=wrap;html=1;" vertex="1" parent="ynaRiRUArdKcr1fRVs-h-191">
          <mxGeometry y="30" width="140" height="30" as="geometry" />
        </mxCell>
        <mxCell id="ynaRiRUArdKcr1fRVs-h-193" value="IdGroup" style="text;strokeColor=none;fillColor=none;align=left;verticalAlign=middle;spacingLeft=4;spacingRight=4;overflow=hidden;points=[[0,0.5],[1,0.5]];portConstraint=eastwest;rotatable=0;whiteSpace=wrap;html=1;" vertex="1" parent="ynaRiRUArdKcr1fRVs-h-191">
          <mxGeometry y="60" width="140" height="30" as="geometry" />
        </mxCell>
        <mxCell id="ynaRiRUArdKcr1fRVs-h-195" style="edgeStyle=orthogonalEdgeStyle;rounded=0;orthogonalLoop=1;jettySize=auto;html=1;entryX=0;entryY=0.5;entryDx=0;entryDy=0;" edge="1" parent="1" source="ynaRiRUArdKcr1fRVs-h-116" target="ynaRiRUArdKcr1fRVs-h-192">
          <mxGeometry relative="1" as="geometry" />
        </mxCell>
        <mxCell id="ynaRiRUArdKcr1fRVs-h-196" style="edgeStyle=orthogonalEdgeStyle;rounded=0;orthogonalLoop=1;jettySize=auto;html=1;entryX=0;entryY=0.5;entryDx=0;entryDy=0;" edge="1" parent="1" source="ynaRiRUArdKcr1fRVs-h-128" target="ynaRiRUArdKcr1fRVs-h-193">
          <mxGeometry relative="1" as="geometry" />
        </mxCell>
        <mxCell id="ynaRiRUArdKcr1fRVs-h-198" style="edgeStyle=orthogonalEdgeStyle;rounded=0;orthogonalLoop=1;jettySize=auto;html=1;entryX=1;entryY=0.5;entryDx=0;entryDy=0;" edge="1" parent="1" source="ynaRiRUArdKcr1fRVs-h-124" target="ynaRiRUArdKcr1fRVs-h-172">
          <mxGeometry relative="1" as="geometry" />
        </mxCell>
        <mxCell id="ynaRiRUArdKcr1fRVs-h-199" style="edgeStyle=orthogonalEdgeStyle;rounded=0;orthogonalLoop=1;jettySize=auto;html=1;entryX=0;entryY=0.5;entryDx=0;entryDy=0;" edge="1" parent="1" source="ynaRiRUArdKcr1fRVs-h-132" target="ynaRiRUArdKcr1fRVs-h-171">
          <mxGeometry relative="1" as="geometry" />
        </mxCell>
        <mxCell id="ynaRiRUArdKcr1fRVs-h-201" value="FavouriteVendorGroup" style="swimlane;fontStyle=0;childLayout=stackLayout;horizontal=1;startSize=30;horizontalStack=0;resizeParent=1;resizeParentMax=0;resizeLast=0;collapsible=1;marginBottom=0;whiteSpace=wrap;html=1;" vertex="1" parent="1">
          <mxGeometry x="390" y="60" width="140" height="90" as="geometry" />
        </mxCell>
        <mxCell id="ynaRiRUArdKcr1fRVs-h-202" value="IdVendor" style="text;strokeColor=none;fillColor=none;align=left;verticalAlign=middle;spacingLeft=4;spacingRight=4;overflow=hidden;points=[[0,0.5],[1,0.5]];portConstraint=eastwest;rotatable=0;whiteSpace=wrap;html=1;" vertex="1" parent="ynaRiRUArdKcr1fRVs-h-201">
          <mxGeometry y="30" width="140" height="30" as="geometry" />
        </mxCell>
        <mxCell id="ynaRiRUArdKcr1fRVs-h-203" value="IdGroup" style="text;strokeColor=none;fillColor=none;align=left;verticalAlign=middle;spacingLeft=4;spacingRight=4;overflow=hidden;points=[[0,0.5],[1,0.5]];portConstraint=eastwest;rotatable=0;whiteSpace=wrap;html=1;" vertex="1" parent="ynaRiRUArdKcr1fRVs-h-201">
          <mxGeometry y="60" width="140" height="30" as="geometry" />
        </mxCell>
        <mxCell id="ynaRiRUArdKcr1fRVs-h-204" style="edgeStyle=orthogonalEdgeStyle;rounded=0;orthogonalLoop=1;jettySize=auto;html=1;entryX=1;entryY=0.5;entryDx=0;entryDy=0;" edge="1" parent="1" source="ynaRiRUArdKcr1fRVs-h-120" target="ynaRiRUArdKcr1fRVs-h-202">
          <mxGeometry relative="1" as="geometry">
            <Array as="points">
              <mxPoint x="1700" y="530" />
              <mxPoint x="1080" y="530" />
              <mxPoint x="1080" y="105" />
            </Array>
          </mxGeometry>
        </mxCell>
        <mxCell id="ynaRiRUArdKcr1fRVs-h-205" style="edgeStyle=orthogonalEdgeStyle;rounded=0;orthogonalLoop=1;jettySize=auto;html=1;entryX=1;entryY=0.5;entryDx=0;entryDy=0;" edge="1" parent="1" source="ynaRiRUArdKcr1fRVs-h-128" target="ynaRiRUArdKcr1fRVs-h-203">
          <mxGeometry relative="1" as="geometry" />
        </mxCell>
        <mxCell id="ynaRiRUArdKcr1fRVs-h-209" value="LinesPurchases" style="swimlane;fontStyle=0;childLayout=stackLayout;horizontal=1;startSize=30;horizontalStack=0;resizeParent=1;resizeParentMax=0;resizeLast=0;collapsible=1;marginBottom=0;whiteSpace=wrap;html=1;" vertex="1" parent="1">
          <mxGeometry x="1970" y="480" width="140" height="120" as="geometry" />
        </mxCell>
        <mxCell id="ynaRiRUArdKcr1fRVs-h-210" value="IdHeaderPurchases" style="text;strokeColor=none;fillColor=none;align=left;verticalAlign=middle;spacingLeft=4;spacingRight=4;overflow=hidden;points=[[0,0.5],[1,0.5]];portConstraint=eastwest;rotatable=0;whiteSpace=wrap;html=1;" vertex="1" parent="ynaRiRUArdKcr1fRVs-h-209">
          <mxGeometry y="30" width="140" height="30" as="geometry" />
        </mxCell>
        <mxCell id="ynaRiRUArdKcr1fRVs-h-211" value="IdCoffee" style="text;strokeColor=none;fillColor=none;align=left;verticalAlign=middle;spacingLeft=4;spacingRight=4;overflow=hidden;points=[[0,0.5],[1,0.5]];portConstraint=eastwest;rotatable=0;whiteSpace=wrap;html=1;" vertex="1" parent="ynaRiRUArdKcr1fRVs-h-209">
          <mxGeometry y="60" width="140" height="30" as="geometry" />
        </mxCell>
        <mxCell id="ynaRiRUArdKcr1fRVs-h-212" value="Quantity" style="text;strokeColor=none;fillColor=none;align=left;verticalAlign=middle;spacingLeft=4;spacingRight=4;overflow=hidden;points=[[0,0.5],[1,0.5]];portConstraint=eastwest;rotatable=0;whiteSpace=wrap;html=1;" vertex="1" parent="ynaRiRUArdKcr1fRVs-h-209">
          <mxGeometry y="90" width="140" height="30" as="geometry" />
        </mxCell>
        <mxCell id="ynaRiRUArdKcr1fRVs-h-213" style="edgeStyle=orthogonalEdgeStyle;rounded=0;orthogonalLoop=1;jettySize=auto;html=1;entryX=0;entryY=0.5;entryDx=0;entryDy=0;" edge="1" parent="1" source="ynaRiRUArdKcr1fRVs-h-145" target="ynaRiRUArdKcr1fRVs-h-210">
          <mxGeometry relative="1" as="geometry">
            <Array as="points">
              <mxPoint x="2085" y="315" />
              <mxPoint x="2085" y="450" />
              <mxPoint x="1950" y="450" />
              <mxPoint x="1950" y="525" />
            </Array>
          </mxGeometry>
        </mxCell>
        <mxCell id="ynaRiRUArdKcr1fRVs-h-214" style="edgeStyle=orthogonalEdgeStyle;rounded=0;orthogonalLoop=1;jettySize=auto;html=1;entryX=0;entryY=0.5;entryDx=0;entryDy=0;" edge="1" parent="1" source="ynaRiRUArdKcr1fRVs-h-132" target="ynaRiRUArdKcr1fRVs-h-211">
          <mxGeometry relative="1" as="geometry" />
        </mxCell>
        <mxCell id="ynaRiRUArdKcr1fRVs-h-216" style="edgeStyle=orthogonalEdgeStyle;rounded=0;orthogonalLoop=1;jettySize=auto;html=1;entryX=0;entryY=0.5;entryDx=0;entryDy=0;exitX=1;exitY=0.5;exitDx=0;exitDy=0;" edge="1" parent="1" source="ynaRiRUArdKcr1fRVs-h-124" target="ynaRiRUArdKcr1fRVs-h-146">
          <mxGeometry relative="1" as="geometry" />
        </mxCell>
        <mxCell id="ynaRiRUArdKcr1fRVs-h-217" style="edgeStyle=orthogonalEdgeStyle;rounded=0;orthogonalLoop=1;jettySize=auto;html=1;entryX=0;entryY=0.5;entryDx=0;entryDy=0;" edge="1" parent="1" source="ynaRiRUArdKcr1fRVs-h-128" target="ynaRiRUArdKcr1fRVs-h-147">
          <mxGeometry relative="1" as="geometry" />
        </mxCell>
        <mxCell id="ynaRiRUArdKcr1fRVs-h-220" style="edgeStyle=orthogonalEdgeStyle;rounded=0;orthogonalLoop=1;jettySize=auto;html=1;entryX=0;entryY=0.5;entryDx=0;entryDy=0;" edge="1" parent="1" source="ynaRiRUArdKcr1fRVs-h-124" target="ynaRiRUArdKcr1fRVs-h-153">
          <mxGeometry relative="1" as="geometry" />
        </mxCell>
        <mxCell id="o7XahCbz8PNS2DM5ow1C-2" value="Vendors" style="swimlane;fontStyle=0;childLayout=stackLayout;horizontal=1;startSize=30;horizontalStack=0;resizeParent=1;resizeParentMax=0;resizeLast=0;collapsible=1;marginBottom=0;whiteSpace=wrap;html=1;fillColor=#fff2cc;strokeColor=#d6b656;" vertex="1" parent="1">
          <mxGeometry x="740" y="585" width="140" height="120" as="geometry" />
        </mxCell>
        <mxCell id="o7XahCbz8PNS2DM5ow1C-3" value="Id" style="text;strokeColor=none;fillColor=none;align=left;verticalAlign=middle;spacingLeft=4;spacingRight=4;overflow=hidden;points=[[0,0.5],[1,0.5]];portConstraint=eastwest;rotatable=0;whiteSpace=wrap;html=1;" vertex="1" parent="o7XahCbz8PNS2DM5ow1C-2">
          <mxGeometry y="30" width="140" height="30" as="geometry" />
        </mxCell>
        <mxCell id="o7XahCbz8PNS2DM5ow1C-4" value="Name" style="text;strokeColor=none;fillColor=none;align=left;verticalAlign=middle;spacingLeft=4;spacingRight=4;overflow=hidden;points=[[0,0.5],[1,0.5]];portConstraint=eastwest;rotatable=0;whiteSpace=wrap;html=1;" vertex="1" parent="o7XahCbz8PNS2DM5ow1C-2">
          <mxGeometry y="60" width="140" height="30" as="geometry" />
        </mxCell>
        <mxCell id="o7XahCbz8PNS2DM5ow1C-5" value="Model" style="text;strokeColor=none;fillColor=none;align=left;verticalAlign=middle;spacingLeft=4;spacingRight=4;overflow=hidden;points=[[0,0.5],[1,0.5]];portConstraint=eastwest;rotatable=0;whiteSpace=wrap;html=1;" vertex="1" parent="o7XahCbz8PNS2DM5ow1C-2">
          <mxGeometry y="90" width="140" height="30" as="geometry" />
        </mxCell>
        <mxCell id="o7XahCbz8PNS2DM5ow1C-6" style="edgeStyle=orthogonalEdgeStyle;rounded=0;orthogonalLoop=1;jettySize=auto;html=1;entryX=0;entryY=0.5;entryDx=0;entryDy=0;" edge="1" parent="1" source="o7XahCbz8PNS2DM5ow1C-3" target="ynaRiRUArdKcr1fRVs-h-120">
          <mxGeometry relative="1" as="geometry">
            <Array as="points">
              <mxPoint x="1255" y="630" />
              <mxPoint x="1255" y="650" />
              <mxPoint x="1630" y="650" />
            </Array>
          </mxGeometry>
        </mxCell>
      </root>
    </mxGraphModel>
  </diagram>
  <diagram id="-VcZjvdm9e__RmhX5ywH" name="FunctionalDiagram">
    <mxGraphModel dx="1685" dy="-45" grid="1" gridSize="10" guides="1" tooltips="1" connect="1" arrows="1" fold="1" page="1" pageScale="1" pageWidth="827" pageHeight="1169" math="0" shadow="0">
      <root>
        <mxCell id="0" />
        <mxCell id="1" parent="0" />
        <mxCell id="SQUzsuzVga4-01VYfYrZ-14" style="edgeStyle=orthogonalEdgeStyle;rounded=0;orthogonalLoop=1;jettySize=auto;html=1;entryX=0;entryY=0.5;entryDx=0;entryDy=0;" edge="1" parent="1" source="SQUzsuzVga4-01VYfYrZ-1" target="SQUzsuzVga4-01VYfYrZ-3">
          <mxGeometry relative="1" as="geometry" />
        </mxCell>
        <mxCell id="SQUzsuzVga4-01VYfYrZ-15" style="edgeStyle=orthogonalEdgeStyle;rounded=0;orthogonalLoop=1;jettySize=auto;html=1;entryX=0;entryY=0.5;entryDx=0;entryDy=0;" edge="1" parent="1" source="SQUzsuzVga4-01VYfYrZ-1" target="SQUzsuzVga4-01VYfYrZ-9">
          <mxGeometry relative="1" as="geometry" />
        </mxCell>
        <mxCell id="SQUzsuzVga4-01VYfYrZ-1" value="Actor" style="shape=umlActor;verticalLabelPosition=bottom;verticalAlign=top;html=1;outlineConnect=0;" vertex="1" parent="1">
          <mxGeometry x="840" y="1300" width="30" height="60" as="geometry" />
        </mxCell>
        <mxCell id="SQUzsuzVga4-01VYfYrZ-3" value="Login" style="rounded=0;whiteSpace=wrap;html=1;" vertex="1" parent="1">
          <mxGeometry x="920" y="1240" width="120" height="60" as="geometry" />
        </mxCell>
        <mxCell id="SQUzsuzVga4-01VYfYrZ-7" style="edgeStyle=orthogonalEdgeStyle;rounded=0;orthogonalLoop=1;jettySize=auto;html=1;entryX=0.5;entryY=0;entryDx=0;entryDy=0;exitX=0.5;exitY=0;exitDx=0;exitDy=0;" edge="1" parent="1" source="SQUzsuzVga4-01VYfYrZ-4" target="SQUzsuzVga4-01VYfYrZ-3">
          <mxGeometry relative="1" as="geometry" />
        </mxCell>
        <mxCell id="SQUzsuzVga4-01VYfYrZ-11" style="edgeStyle=orthogonalEdgeStyle;rounded=0;orthogonalLoop=1;jettySize=auto;html=1;" edge="1" parent="1" source="SQUzsuzVga4-01VYfYrZ-4">
          <mxGeometry relative="1" as="geometry">
            <mxPoint x="1260" y="1270" as="targetPoint" />
          </mxGeometry>
        </mxCell>
        <mxCell id="SQUzsuzVga4-01VYfYrZ-4" value="" style="rhombus;whiteSpace=wrap;html=1;" vertex="1" parent="1">
          <mxGeometry x="1080" y="1230" width="80" height="80" as="geometry" />
        </mxCell>
        <mxCell id="SQUzsuzVga4-01VYfYrZ-8" value="Fail" style="text;html=1;strokeColor=none;fillColor=none;align=center;verticalAlign=middle;whiteSpace=wrap;rounded=0;" vertex="1" parent="1">
          <mxGeometry x="1010" y="1169" width="60" height="30" as="geometry" />
        </mxCell>
        <mxCell id="SQUzsuzVga4-01VYfYrZ-13" style="edgeStyle=orthogonalEdgeStyle;rounded=0;orthogonalLoop=1;jettySize=auto;html=1;entryX=0.5;entryY=1;entryDx=0;entryDy=0;" edge="1" parent="1" source="SQUzsuzVga4-01VYfYrZ-9" target="SQUzsuzVga4-01VYfYrZ-3">
          <mxGeometry relative="1" as="geometry" />
        </mxCell>
        <mxCell id="SQUzsuzVga4-01VYfYrZ-9" value="Register" style="rounded=0;whiteSpace=wrap;html=1;" vertex="1" parent="1">
          <mxGeometry x="920" y="1370" width="120" height="60" as="geometry" />
        </mxCell>
        <mxCell id="SQUzsuzVga4-01VYfYrZ-12" value="Success" style="text;html=1;strokeColor=none;fillColor=none;align=center;verticalAlign=middle;whiteSpace=wrap;rounded=0;" vertex="1" parent="1">
          <mxGeometry x="1170" y="1220" width="60" height="30" as="geometry" />
        </mxCell>
        <mxCell id="SQUzsuzVga4-01VYfYrZ-18" value="" style="edgeStyle=orthogonalEdgeStyle;rounded=0;orthogonalLoop=1;jettySize=auto;html=1;" edge="1" parent="1" source="SQUzsuzVga4-01VYfYrZ-16" target="SQUzsuzVga4-01VYfYrZ-17">
          <mxGeometry relative="1" as="geometry" />
        </mxCell>
        <mxCell id="SQUzsuzVga4-01VYfYrZ-20" value="" style="edgeStyle=orthogonalEdgeStyle;rounded=0;orthogonalLoop=1;jettySize=auto;html=1;" edge="1" parent="1" source="SQUzsuzVga4-01VYfYrZ-16" target="SQUzsuzVga4-01VYfYrZ-19">
          <mxGeometry relative="1" as="geometry" />
        </mxCell>
        <mxCell id="SQUzsuzVga4-01VYfYrZ-16" value="First Time" style="rhombus;whiteSpace=wrap;html=1;" vertex="1" parent="1">
          <mxGeometry x="1260" y="1230" width="80" height="80" as="geometry" />
        </mxCell>
        <mxCell id="SQUzsuzVga4-01VYfYrZ-35" style="edgeStyle=orthogonalEdgeStyle;rounded=0;orthogonalLoop=1;jettySize=auto;html=1;entryX=0.5;entryY=0;entryDx=0;entryDy=0;" edge="1" parent="1" source="SQUzsuzVga4-01VYfYrZ-17" target="SQUzsuzVga4-01VYfYrZ-31">
          <mxGeometry relative="1" as="geometry" />
        </mxCell>
        <mxCell id="SQUzsuzVga4-01VYfYrZ-17" value="Initial User Configuration Page" style="whiteSpace=wrap;html=1;" vertex="1" parent="1">
          <mxGeometry x="1400" y="1240" width="120" height="60" as="geometry" />
        </mxCell>
        <mxCell id="SQUzsuzVga4-01VYfYrZ-27" style="edgeStyle=orthogonalEdgeStyle;rounded=0;orthogonalLoop=1;jettySize=auto;html=1;entryX=0;entryY=0.5;entryDx=0;entryDy=0;" edge="1" parent="1" source="SQUzsuzVga4-01VYfYrZ-19" target="SQUzsuzVga4-01VYfYrZ-23">
          <mxGeometry relative="1" as="geometry" />
        </mxCell>
        <mxCell id="SQUzsuzVga4-01VYfYrZ-28" style="edgeStyle=orthogonalEdgeStyle;rounded=0;orthogonalLoop=1;jettySize=auto;html=1;entryX=0;entryY=0.5;entryDx=0;entryDy=0;" edge="1" parent="1" source="SQUzsuzVga4-01VYfYrZ-19" target="SQUzsuzVga4-01VYfYrZ-25">
          <mxGeometry relative="1" as="geometry" />
        </mxCell>
        <mxCell id="SQUzsuzVga4-01VYfYrZ-46" style="edgeStyle=orthogonalEdgeStyle;rounded=0;orthogonalLoop=1;jettySize=auto;html=1;entryX=0;entryY=0.5;entryDx=0;entryDy=0;" edge="1" parent="1" source="SQUzsuzVga4-01VYfYrZ-19" target="SQUzsuzVga4-01VYfYrZ-45">
          <mxGeometry relative="1" as="geometry" />
        </mxCell>
        <mxCell id="SQUzsuzVga4-01VYfYrZ-54" style="edgeStyle=orthogonalEdgeStyle;rounded=0;orthogonalLoop=1;jettySize=auto;html=1;entryX=0;entryY=0.5;entryDx=0;entryDy=0;" edge="1" parent="1" source="SQUzsuzVga4-01VYfYrZ-19" target="SQUzsuzVga4-01VYfYrZ-53">
          <mxGeometry relative="1" as="geometry" />
        </mxCell>
        <mxCell id="SQUzsuzVga4-01VYfYrZ-19" value="Initial Page" style="whiteSpace=wrap;html=1;" vertex="1" parent="1">
          <mxGeometry x="1240" y="1400" width="120" height="60" as="geometry" />
        </mxCell>
        <mxCell id="SQUzsuzVga4-01VYfYrZ-21" value="Yes" style="text;html=1;align=center;verticalAlign=middle;resizable=0;points=[];autosize=1;strokeColor=none;fillColor=none;" vertex="1" parent="1">
          <mxGeometry x="1340" y="1228" width="40" height="30" as="geometry" />
        </mxCell>
        <mxCell id="SQUzsuzVga4-01VYfYrZ-22" value="No" style="text;html=1;align=center;verticalAlign=middle;resizable=0;points=[];autosize=1;strokeColor=none;fillColor=none;" vertex="1" parent="1">
          <mxGeometry x="1310" y="1328" width="40" height="30" as="geometry" />
        </mxCell>
        <mxCell id="SQUzsuzVga4-01VYfYrZ-30" value="" style="edgeStyle=orthogonalEdgeStyle;rounded=0;orthogonalLoop=1;jettySize=auto;html=1;entryX=0.5;entryY=0;entryDx=0;entryDy=0;" edge="1" parent="1" source="SQUzsuzVga4-01VYfYrZ-23" target="SQUzsuzVga4-01VYfYrZ-38">
          <mxGeometry relative="1" as="geometry">
            <mxPoint x="1560" y="1510" as="targetPoint" />
          </mxGeometry>
        </mxCell>
        <mxCell id="SQUzsuzVga4-01VYfYrZ-23" value="Bookings" style="whiteSpace=wrap;html=1;" vertex="1" parent="1">
          <mxGeometry x="1360" y="1480" width="120" height="60" as="geometry" />
        </mxCell>
        <mxCell id="SQUzsuzVga4-01VYfYrZ-43" style="edgeStyle=orthogonalEdgeStyle;rounded=0;orthogonalLoop=1;jettySize=auto;html=1;entryX=0.5;entryY=1;entryDx=0;entryDy=0;exitX=1;exitY=0.5;exitDx=0;exitDy=0;" edge="1" parent="1" source="SQUzsuzVga4-01VYfYrZ-25" target="SQUzsuzVga4-01VYfYrZ-17">
          <mxGeometry relative="1" as="geometry" />
        </mxCell>
        <mxCell id="SQUzsuzVga4-01VYfYrZ-25" value="Configuration" style="whiteSpace=wrap;html=1;" vertex="1" parent="1">
          <mxGeometry x="1360" y="1560" width="120" height="60" as="geometry" />
        </mxCell>
        <mxCell id="SQUzsuzVga4-01VYfYrZ-31" value="Information" style="swimlane;fontStyle=0;childLayout=stackLayout;horizontal=1;startSize=30;horizontalStack=0;resizeParent=1;resizeParentMax=0;resizeLast=0;collapsible=1;marginBottom=0;whiteSpace=wrap;html=1;" vertex="1" parent="1">
          <mxGeometry x="1600" y="1258" width="140" height="150" as="geometry" />
        </mxCell>
        <mxCell id="SQUzsuzVga4-01VYfYrZ-32" value="User Name" style="text;strokeColor=none;fillColor=none;align=left;verticalAlign=middle;spacingLeft=4;spacingRight=4;overflow=hidden;points=[[0,0.5],[1,0.5]];portConstraint=eastwest;rotatable=0;whiteSpace=wrap;html=1;" vertex="1" parent="SQUzsuzVga4-01VYfYrZ-31">
          <mxGeometry y="30" width="140" height="30" as="geometry" />
        </mxCell>
        <mxCell id="SQUzsuzVga4-01VYfYrZ-34" value="Place" style="text;strokeColor=none;fillColor=none;align=left;verticalAlign=middle;spacingLeft=4;spacingRight=4;overflow=hidden;points=[[0,0.5],[1,0.5]];portConstraint=eastwest;rotatable=0;whiteSpace=wrap;html=1;" vertex="1" parent="SQUzsuzVga4-01VYfYrZ-31">
          <mxGeometry y="60" width="140" height="30" as="geometry" />
        </mxCell>
        <mxCell id="SQUzsuzVga4-01VYfYrZ-33" value="Add Group / New Group" style="text;strokeColor=none;fillColor=none;align=left;verticalAlign=middle;spacingLeft=4;spacingRight=4;overflow=hidden;points=[[0,0.5],[1,0.5]];portConstraint=eastwest;rotatable=0;whiteSpace=wrap;html=1;" vertex="1" parent="SQUzsuzVga4-01VYfYrZ-31">
          <mxGeometry y="90" width="140" height="30" as="geometry" />
        </mxCell>
        <mxCell id="SQUzsuzVga4-01VYfYrZ-36" value="Set Fav Coffee (From favourite vendor in selected group)" style="text;strokeColor=none;fillColor=none;align=left;verticalAlign=middle;spacingLeft=4;spacingRight=4;overflow=hidden;points=[[0,0.5],[1,0.5]];portConstraint=eastwest;rotatable=0;whiteSpace=wrap;html=1;" vertex="1" parent="SQUzsuzVga4-01VYfYrZ-31">
          <mxGeometry y="120" width="140" height="30" as="geometry" />
        </mxCell>
        <mxCell id="SQUzsuzVga4-01VYfYrZ-38" value="Information" style="swimlane;fontStyle=0;childLayout=stackLayout;horizontal=1;startSize=30;horizontalStack=0;resizeParent=1;resizeParentMax=0;resizeLast=0;collapsible=1;marginBottom=0;whiteSpace=wrap;html=1;" vertex="1" parent="1">
          <mxGeometry x="1570" y="1510" width="160" height="120" as="geometry" />
        </mxCell>
        <mxCell id="SQUzsuzVga4-01VYfYrZ-39" value="Group" style="text;strokeColor=none;fillColor=none;align=left;verticalAlign=middle;spacingLeft=4;spacingRight=4;overflow=hidden;points=[[0,0.5],[1,0.5]];portConstraint=eastwest;rotatable=0;whiteSpace=wrap;html=1;" vertex="1" parent="SQUzsuzVga4-01VYfYrZ-38">
          <mxGeometry y="30" width="160" height="30" as="geometry" />
        </mxCell>
        <mxCell id="SQUzsuzVga4-01VYfYrZ-42" value="DateTime Only see Free" style="text;strokeColor=none;fillColor=none;align=left;verticalAlign=middle;spacingLeft=4;spacingRight=4;overflow=hidden;points=[[0,0.5],[1,0.5]];portConstraint=eastwest;rotatable=0;whiteSpace=wrap;html=1;" vertex="1" parent="SQUzsuzVga4-01VYfYrZ-38">
          <mxGeometry y="60" width="160" height="30" as="geometry" />
        </mxCell>
        <mxCell id="SQUzsuzVga4-01VYfYrZ-44" value="Optional(Exclussions)" style="text;strokeColor=none;fillColor=none;align=left;verticalAlign=middle;spacingLeft=4;spacingRight=4;overflow=hidden;points=[[0,0.5],[1,0.5]];portConstraint=eastwest;rotatable=0;whiteSpace=wrap;html=1;" vertex="1" parent="SQUzsuzVga4-01VYfYrZ-38">
          <mxGeometry y="90" width="160" height="30" as="geometry" />
        </mxCell>
        <mxCell id="SQUzsuzVga4-01VYfYrZ-51" style="edgeStyle=orthogonalEdgeStyle;rounded=0;orthogonalLoop=1;jettySize=auto;html=1;entryX=0.5;entryY=0;entryDx=0;entryDy=0;" edge="1" parent="1" source="SQUzsuzVga4-01VYfYrZ-45" target="SQUzsuzVga4-01VYfYrZ-47">
          <mxGeometry relative="1" as="geometry" />
        </mxCell>
        <mxCell id="SQUzsuzVga4-01VYfYrZ-45" value="Groups Info" style="whiteSpace=wrap;html=1;" vertex="1" parent="1">
          <mxGeometry x="1360" y="1650" width="120" height="60" as="geometry" />
        </mxCell>
        <mxCell id="SQUzsuzVga4-01VYfYrZ-47" value="Information" style="swimlane;fontStyle=0;childLayout=stackLayout;horizontal=1;startSize=30;horizontalStack=0;resizeParent=1;resizeParentMax=0;resizeLast=0;collapsible=1;marginBottom=0;whiteSpace=wrap;html=1;" vertex="1" parent="1">
          <mxGeometry x="1570" y="1670" width="160" height="150" as="geometry" />
        </mxCell>
        <mxCell id="SQUzsuzVga4-01VYfYrZ-48" value="Name" style="text;strokeColor=none;fillColor=none;align=left;verticalAlign=middle;spacingLeft=4;spacingRight=4;overflow=hidden;points=[[0,0.5],[1,0.5]];portConstraint=eastwest;rotatable=0;whiteSpace=wrap;html=1;" vertex="1" parent="SQUzsuzVga4-01VYfYrZ-47">
          <mxGeometry y="30" width="160" height="30" as="geometry" />
        </mxCell>
        <mxCell id="SQUzsuzVga4-01VYfYrZ-49" value="Last user who pay" style="text;strokeColor=none;fillColor=none;align=left;verticalAlign=middle;spacingLeft=4;spacingRight=4;overflow=hidden;points=[[0,0.5],[1,0.5]];portConstraint=eastwest;rotatable=0;whiteSpace=wrap;html=1;" vertex="1" parent="SQUzsuzVga4-01VYfYrZ-47">
          <mxGeometry y="60" width="160" height="30" as="geometry" />
        </mxCell>
        <mxCell id="SQUzsuzVga4-01VYfYrZ-50" value="Next user must pay" style="text;strokeColor=none;fillColor=none;align=left;verticalAlign=middle;spacingLeft=4;spacingRight=4;overflow=hidden;points=[[0,0.5],[1,0.5]];portConstraint=eastwest;rotatable=0;whiteSpace=wrap;html=1;" vertex="1" parent="SQUzsuzVga4-01VYfYrZ-47">
          <mxGeometry y="90" width="160" height="30" as="geometry" />
        </mxCell>
        <mxCell id="SQUzsuzVga4-01VYfYrZ-52" value="Stadistics" style="text;strokeColor=none;fillColor=none;align=left;verticalAlign=middle;spacingLeft=4;spacingRight=4;overflow=hidden;points=[[0,0.5],[1,0.5]];portConstraint=eastwest;rotatable=0;whiteSpace=wrap;html=1;" vertex="1" parent="SQUzsuzVga4-01VYfYrZ-47">
          <mxGeometry y="120" width="160" height="30" as="geometry" />
        </mxCell>
        <mxCell id="SQUzsuzVga4-01VYfYrZ-61" value="" style="edgeStyle=orthogonalEdgeStyle;rounded=0;orthogonalLoop=1;jettySize=auto;html=1;" edge="1" parent="1" source="SQUzsuzVga4-01VYfYrZ-53" target="SQUzsuzVga4-01VYfYrZ-60">
          <mxGeometry relative="1" as="geometry" />
        </mxCell>
        <mxCell id="SQUzsuzVga4-01VYfYrZ-53" value="IF Permissions" style="whiteSpace=wrap;html=1;" vertex="1" parent="1">
          <mxGeometry x="1360" y="1740" width="120" height="60" as="geometry" />
        </mxCell>
        <mxCell id="SQUzsuzVga4-01VYfYrZ-55" value="Information" style="swimlane;fontStyle=0;childLayout=stackLayout;horizontal=1;startSize=30;horizontalStack=0;resizeParent=1;resizeParentMax=0;resizeLast=0;collapsible=1;marginBottom=0;whiteSpace=wrap;html=1;" vertex="1" parent="1">
          <mxGeometry x="1570" y="1900" width="160" height="150" as="geometry" />
        </mxCell>
        <mxCell id="SQUzsuzVga4-01VYfYrZ-56" value="Edit Places" style="text;strokeColor=none;fillColor=none;align=left;verticalAlign=middle;spacingLeft=4;spacingRight=4;overflow=hidden;points=[[0,0.5],[1,0.5]];portConstraint=eastwest;rotatable=0;whiteSpace=wrap;html=1;" vertex="1" parent="SQUzsuzVga4-01VYfYrZ-55">
          <mxGeometry y="30" width="160" height="30" as="geometry" />
        </mxCell>
        <mxCell id="SQUzsuzVga4-01VYfYrZ-63" value="Edit Vendors" style="text;strokeColor=none;fillColor=none;align=left;verticalAlign=middle;spacingLeft=4;spacingRight=4;overflow=hidden;points=[[0,0.5],[1,0.5]];portConstraint=eastwest;rotatable=0;whiteSpace=wrap;html=1;" vertex="1" parent="SQUzsuzVga4-01VYfYrZ-55">
          <mxGeometry y="60" width="160" height="30" as="geometry" />
        </mxCell>
        <mxCell id="SQUzsuzVga4-01VYfYrZ-64" value="Edit Coffee" style="text;strokeColor=none;fillColor=none;align=left;verticalAlign=middle;spacingLeft=4;spacingRight=4;overflow=hidden;points=[[0,0.5],[1,0.5]];portConstraint=eastwest;rotatable=0;whiteSpace=wrap;html=1;" vertex="1" parent="SQUzsuzVga4-01VYfYrZ-55">
          <mxGeometry y="90" width="160" height="30" as="geometry" />
        </mxCell>
        <mxCell id="SQUzsuzVga4-01VYfYrZ-59" value="Edit Prices" style="text;strokeColor=none;fillColor=none;align=left;verticalAlign=middle;spacingLeft=4;spacingRight=4;overflow=hidden;points=[[0,0.5],[1,0.5]];portConstraint=eastwest;rotatable=0;whiteSpace=wrap;html=1;" vertex="1" parent="SQUzsuzVga4-01VYfYrZ-55">
          <mxGeometry y="120" width="160" height="30" as="geometry" />
        </mxCell>
        <mxCell id="SQUzsuzVga4-01VYfYrZ-62" style="edgeStyle=orthogonalEdgeStyle;rounded=0;orthogonalLoop=1;jettySize=auto;html=1;entryX=0.5;entryY=0;entryDx=0;entryDy=0;" edge="1" parent="1" source="SQUzsuzVga4-01VYfYrZ-60" target="SQUzsuzVga4-01VYfYrZ-55">
          <mxGeometry relative="1" as="geometry" />
        </mxCell>
        <mxCell id="SQUzsuzVga4-01VYfYrZ-60" value="Places and vendors configuration" style="whiteSpace=wrap;html=1;" vertex="1" parent="1">
          <mxGeometry x="1360" y="1880" width="120" height="60" as="geometry" />
        </mxCell>
      </root>
    </mxGraphModel>
  </diagram>
</mxfile>
